<svg width="58" height="57" viewBox="0 0 58 57" fill="none" xmlns="http://www.w3.org/2000/svg">
<g clip-path="url(#clip0_2_95)">
<path d="M28.8334 0C13.0942 0 0.333374 12.7609 0.333374 28.5C0.333374 44.2391 13.0942 57 28.8334 57C44.5725 57 57.3334 44.2391 57.3334 28.5C57.3334 12.7609 44.5725 0 28.8334 0ZM39.3807 40.1185C34.3885 40.4605 23.2687 40.4605 18.2836 40.1185C12.8781 39.748 12.2487 37.1022 12.2084 28.5C12.2487 19.8811 12.8852 17.252 18.2836 16.8815C23.2687 16.5395 34.3909 16.5395 39.3807 16.8815C44.7886 17.252 45.4156 19.8978 45.4584 28.5C45.4156 37.1189 44.7815 39.748 39.3807 40.1185ZM24.0834 22.9377L35.7612 28.4905L24.0834 34.0623V22.9377Z" fill="#DADADA"/>
</g>
<defs>
<clipPath id="clip0_2_95">
<rect width="57" height="57" fill="white" transform="translate(0.333374)"/>
</clipPath>
</defs>
</svg>
