<svg width="59" height="58" viewBox="0 0 59 58" fill="none" xmlns="http://www.w3.org/2000/svg">
<g clip-path="url(#clip0_2_93)">
<path d="M36.5034 15.2298C34.7199 15.1477 34.1834 15.1332 29.6666 15.1332C25.1499 15.1332 24.6158 15.1501 22.8323 15.2298C18.243 15.4401 16.1067 17.6127 15.8965 22.1657C15.8167 23.9492 15.7974 24.4833 15.7974 29C15.7974 33.5168 15.8167 34.0508 15.8965 35.8368C16.1067 40.3777 18.2334 42.5623 22.8323 42.7726C24.6134 42.8523 25.1499 42.8717 29.6666 42.8717C34.1858 42.8717 34.7199 42.8547 36.5034 42.7726C41.0926 42.5647 43.2265 40.3849 43.4392 35.8368C43.519 34.0533 43.5359 33.5168 43.5359 29C43.5359 24.4833 43.519 23.9492 43.4392 22.1657C43.2265 17.6151 41.0878 15.4401 36.5034 15.2298ZM29.6666 37.6879C24.8695 37.6879 20.9787 33.7995 20.9787 29C20.9787 24.2029 24.8695 20.3145 29.6666 20.3145C34.4637 20.3145 38.3545 24.2029 38.3545 29C38.3545 33.7971 34.4637 37.6879 29.6666 37.6879ZM38.6977 22.0013C37.5764 22.0013 36.6677 21.0927 36.6677 19.9713C36.6677 18.85 37.5764 17.9413 38.6977 17.9413C39.819 17.9413 40.7277 18.85 40.7277 19.9713C40.7277 21.0903 39.819 22.0013 38.6977 22.0013ZM35.3047 29C35.3047 32.1151 32.7793 34.6381 29.6666 34.6381C26.554 34.6381 24.0285 32.1151 24.0285 29C24.0285 25.8849 26.554 23.3619 29.6666 23.3619C32.7793 23.3619 35.3047 25.8849 35.3047 29ZM29.6666 0C13.6514 0 0.666626 12.9848 0.666626 29C0.666626 45.0153 13.6514 58 29.6666 58C45.6819 58 58.6666 45.0153 58.6666 29C58.6666 12.9848 45.6819 0 29.6666 0ZM46.4818 35.9745C46.2039 42.1249 42.7795 45.5324 36.6435 45.8152C34.8383 45.8973 34.2607 45.9167 29.6666 45.9167C25.0725 45.9167 24.4974 45.8973 22.6921 45.8152C16.5441 45.5324 13.1342 42.1201 12.8515 35.9745C12.7693 34.1717 12.75 33.5941 12.75 29C12.75 24.4059 12.7693 23.8308 12.8515 22.0255C13.1342 15.8775 16.5465 12.4676 22.6921 12.1873C24.4974 12.1027 25.0725 12.0833 29.6666 12.0833C34.2607 12.0833 34.8383 12.1027 36.6435 12.1873C42.794 12.47 46.2063 15.8896 46.4818 22.0255C46.564 23.8308 46.5833 24.4059 46.5833 29C46.5833 33.5941 46.564 34.1717 46.4818 35.9745Z" fill="#DADADA"/>
</g>
<defs>
<clipPath id="clip0_2_93">
<rect width="58" height="58" fill="white" transform="translate(0.666626)"/>
</clipPath>
</defs>
</svg>
