<svg width="58" height="57" viewBox="0 0 58 57" fill="none" xmlns="http://www.w3.org/2000/svg">
<g clip-path="url(#clip0_2_82)">
<path d="M7.57625 0H50.2221C54.2844 0 57.8935 3.46676 58 7.45453V49.3673C57.9532 51.3795 57.118 53.2963 55.6686 54.7182C54.2192 56.1401 52.2674 56.9575 50.2198 57H7.58984C5.5736 56.9079 3.66822 56.0666 2.25918 54.6463C0.850139 53.226 0.0426244 51.3327 0 49.3495V7.47234C0.0974219 3.54691 3.58195 0.111328 7.57625 0ZM11.3666 20.3597C11.3372 24.7839 11.353 29.2103 11.3304 33.6367C11.3481 33.7072 11.3488 33.7808 11.3325 33.8516C11.3161 33.9225 11.2833 33.9886 11.2364 34.0448C11.1896 34.1009 11.1301 34.1456 11.0627 34.1753C10.9952 34.2049 10.9216 34.2187 10.8478 34.2156C10.3063 34.2468 9.76258 34.2289 9.21883 34.2334C9.58359 35.124 9.97781 35.9835 10.3856 36.8452C11.4097 36.8118 12.5788 37.0211 13.4533 36.362C14.2395 35.7875 14.4909 34.7655 14.4751 33.846C14.4751 29.3505 14.4751 24.8529 14.4547 20.3575C13.4261 20.353 12.3952 20.3508 11.3666 20.3597ZM24.0723 20.1593C23.305 21.8916 22.5226 23.6164 21.7251 25.3338C21.4985 25.8482 21.2244 26.5295 21.7002 26.9948C22.3096 27.5381 23.2045 27.3288 23.9522 27.3778C23.4334 28.6648 22.7514 29.8871 22.3141 31.2053C22.0717 31.8554 22.6766 32.5167 23.3382 32.5234C24.5367 32.6036 25.7398 32.5234 26.9405 32.5546C27.3325 31.6929 27.7267 30.8334 28.1119 29.9673C27.4118 29.9673 26.7049 30.0163 26.0162 29.8805C26.7616 28.0413 27.6452 26.2623 28.4359 24.4454C27.4684 24.3341 26.3741 24.6436 25.4905 24.274C25.921 22.849 26.7049 21.542 27.2577 20.1548C26.1929 20.1504 25.1326 20.1437 24.0723 20.1593ZM40.5547 20.1704V21.3305C39.8614 21.3305 39.1681 21.3305 38.4748 21.3305C38.4748 22.3695 38.4748 23.4034 38.4748 24.4321C39.1704 24.4321 39.8637 24.4321 40.557 24.4454C40.5751 25.3361 40.5751 26.2326 40.557 27.1351C39.5148 27.1552 38.4703 27.1351 37.4281 27.1507C37.4145 28.1838 37.4168 29.2147 37.4281 30.2456C38.4726 30.2568 39.5193 30.2456 40.5638 30.2456C40.5638 32.441 40.5638 34.6386 40.5638 36.834C41.6105 36.834 42.6549 36.834 43.7016 36.834C43.7016 34.6386 43.7016 32.444 43.7016 30.2501C45.2287 30.2501 46.7534 30.2278 48.2805 30.2501C48.8174 30.2055 49.4314 30.5752 49.4133 31.1563C49.4552 31.9781 49.4552 32.8015 49.4133 33.6233C49.4213 33.7565 49.3753 33.8873 49.2852 33.9871C49.1951 34.0869 49.0684 34.1474 48.933 34.1555C48.0607 34.2178 47.1862 34.1555 46.3116 34.1844C46.6968 35.075 47.0706 35.9657 47.5079 36.8452C48.9466 36.7717 50.7047 37.1279 51.8013 35.9545C52.8434 35.006 52.5308 33.5053 52.5738 32.2673C52.5081 30.9648 52.8321 29.493 52.0097 28.353C51.3096 27.3867 50.0477 27.124 48.9103 27.1039C48.8423 25.5454 49.2207 23.7218 48.0539 22.4549C46.9664 21.257 45.2151 21.2525 43.7107 21.3104V20.1526C42.6459 20.1638 41.5991 20.166 40.5547 20.1704ZM29.358 21.3327C29.358 22.3718 29.358 23.4049 29.358 24.4321C30.015 24.4321 30.6698 24.4321 31.3268 24.4321C31.3268 27.5292 31.3268 30.6286 31.3268 33.7257C30.3866 33.7413 29.4441 33.7257 28.5038 33.7369C28.0167 34.7655 27.5409 35.7987 27.0674 36.8318C30.5746 36.8452 34.0909 36.8318 37.589 36.8318C37.589 35.8016 37.589 34.77 37.589 33.7369C36.5808 33.7369 35.5703 33.7369 34.5621 33.7257C34.5621 30.6264 34.5621 27.5263 34.5621 24.4254C35.2214 24.4254 35.8784 24.4254 36.5377 24.4254C36.5377 23.3923 36.5377 22.3569 36.5377 21.3238C34.1498 21.3282 31.755 21.3238 29.358 21.3327ZM50.0545 21.6177C49.1754 22.2723 49.4631 23.4702 49.4246 24.4031C50.0114 24.4031 50.6005 24.4343 51.1873 24.3831C52.1298 24.2985 52.8389 23.2186 52.4605 22.3458C52.1637 21.3884 50.8474 20.972 50.0545 21.6177ZM6.11719 24.4298C5.95859 26.4605 5.79773 28.4889 5.6482 30.5195C5.61349 30.9808 5.51281 31.4351 5.34914 31.8688C5.87929 33.06 6.40946 34.2512 6.97586 35.4313C8.24461 33.7636 8.71586 31.6617 8.84726 29.62C8.95828 27.8832 9.15539 26.1488 9.21883 24.4098C8.17891 24.4454 7.14578 24.4209 6.11719 24.4298ZM16.5685 24.4298C16.7196 26.3135 16.8706 28.1964 17.0216 30.0786C17.187 31.9668 17.6832 33.8905 18.8568 35.4224C19.4164 34.2445 19.9511 33.0555 20.4812 31.8599C20.3094 31.4253 20.2026 30.9686 20.1641 30.5039C20.0145 28.48 19.8514 26.456 19.6928 24.4321C18.6476 24.4261 17.6039 24.4254 16.5617 24.4298H16.5685ZM20.4563 36.6069C22.0604 37.0723 23.7596 36.7539 25.4067 36.8407C25.8916 35.8098 26.3741 34.7767 26.8454 33.7391C25.1983 33.6768 23.5217 33.9083 21.9063 33.5009C21.4124 34.5325 20.9268 35.5679 20.4495 36.6069H20.4563Z" fill="#DADADA"/>
<path d="M43.6744 24.4407C44.3541 24.5365 45.2604 24.1691 45.7792 24.7079C45.8653 25.5206 45.8019 26.3378 45.8109 27.1571C45.1063 27.1571 44.3994 27.1571 43.6948 27.1571C43.6812 26.2517 43.6744 25.3462 43.6744 24.4407Z" fill="#DADADA"/>
<path d="M50.0544 21.6176C50.8474 20.9719 52.1637 21.395 52.4605 22.3457C52.8388 23.2185 52.1297 24.2984 51.1872 24.383C50.6004 24.4342 50.0114 24.4053 49.4246 24.4031C49.4631 23.4701 49.1753 22.2656 50.0544 21.6176Z" fill="white"/>
</g>
<defs>
<clipPath id="clip0_2_82">
<rect width="58" height="57" fill="white"/>
</clipPath>
</defs>
</svg>
